<svg id="Layer_1" data-name="Layer 1" xmlns="http://www.w3.org/2000/svg" xmlns:xlink="http://www.w3.org/1999/xlink" viewBox="0 0 48 50">
    <style>
    .cls-1 {
        fill: url(#linear-gradient);
    }

    .cls-2 {
        fill: url(#linear-gradient-2);
    }

    .cls-3 {
        fill: #fff;
    }
    </style>
    <linearGradient id="logo-gradient" x1="50%" y1="0%" x2="50%" y2="100%">
        <stop offset="0%" stop-color="#7A1AD8">
            <animate attributeName="stop-color" values="#7A1AD8; #FF5855; #7A1AD8" dur="1s" repeatCount="indefinite"></animate>
        </stop>
        <stop offset="100%" stop-color="#FF5855">
            <animate attributeName="stop-color" values="#FF5855; #7A1AD8; #FF5855" dur="1s" repeatCount="indefinite"></animate>
        </stop>
    </linearGradient>
    <title>svg</title>
    <path fill="url('#logo-gradient')" d="M46.65,1.38l0-.2a.16.16,0,0,0,0-.09A1.07,1.07,0,0,0,46.5.94L46.43.8a1.24,1.24,0,0,0-.17-.23A1.37,1.37,0,0,0,46.09.4a2.23,2.23,0,0,0-.58-.33L45.25,0a1.53,1.53,0,0,0-.37,0,.39.39,0,0,0-.16,0,1,1,0,0,0-.29.07h0A121.52,121.52,0,0,0,23.73,9.85,121.46,121.46,0,0,0,3,.1a.32.32,0,0,0-.16,0,1.64,1.64,0,0,0-2,1,.62.62,0,0,0-.09.26A44.77,44.77,0,0,0,3.5,27.13h0A44.94,44.94,0,0,0,22.89,48.79a1.87,1.87,0,0,0,.84.21,1.73,1.73,0,0,0,.93-.28A44.67,44.67,0,0,0,43.8,27.42l0-.05.11-.24.07-.19v0A44.09,44.09,0,0,0,47.43,9.79,45.22,45.22,0,0,0,46.65,1.38ZM3.75,3.94a115.22,115.22,0,0,1,16.78,7.9A96.5,96.5,0,0,0,5.69,23.52,40.53,40.53,0,0,1,3.33,9.79,40.59,40.59,0,0,1,3.75,3.94ZM8.12,29.09A21.71,21.71,0,0,1,21.47,44,41.46,41.46,0,0,1,8.12,29.09Zm15.6,11.06A25.05,25.05,0,0,0,8.32,25.62,92.53,92.53,0,0,1,23.73,13.75,93.1,93.1,0,0,1,39.15,25.61,25.07,25.07,0,0,0,23.72,40.15ZM26,44A21.65,21.65,0,0,1,39.31,29.09,41.41,41.41,0,0,1,26,44Zm15.8-20.49A97,97,0,0,0,26.93,11.84,115.56,115.56,0,0,1,43.7,4a41.92,41.92,0,0,1,.4,5.84A41,41,0,0,1,41.76,23.51Z" />
</svg>