<svg id="Layer_1" data-name="Layer 1" xmlns="http://www.w3.org/2000/svg" viewBox="0 0 58.83 58.83"><defs><style>.cls-1{fill:#1e222d;}.cls-2{fill:#fff;}</style></defs><title>svg</title><circle class="cls-1" cx="29.42" cy="29.42" r="29.42"/><path class="cls-2" d="M45,16.57a.74.74,0,0,0,0-.14.13.13,0,0,0,0-.06l0-.11-.05-.09a.61.61,0,0,0-.12-.16l-.11-.11a1.31,1.31,0,0,0-.4-.22l-.17,0a.7.7,0,0,0-.25,0h-.11l-.2,0h0a82.81,82.81,0,0,0-14,6.61,82.69,82.69,0,0,0-14.05-6.62l-.1,0a1.12,1.12,0,0,0-1.35.7.35.35,0,0,0-.06.17,30.4,30.4,0,0,0-.54,5.73A30,30,0,0,0,15.7,34h0A30.42,30.42,0,0,0,28.85,48.74a1.15,1.15,0,0,0,.57.14,1.26,1.26,0,0,0,.64-.18A30.35,30.35,0,0,0,43,34.24l0,0c0-.05,0-.1.07-.16l0-.13h0a30,30,0,0,0,2.32-11.63A30.84,30.84,0,0,0,45,16.57ZM15.86,18.3a79.11,79.11,0,0,1,11.39,5.36,65.44,65.44,0,0,0-10.07,7.93A28,28,0,0,1,15.86,18.3Zm3,17.07a14.74,14.74,0,0,1,9.06,10.12A28.23,28.23,0,0,1,18.83,35.37Zm10.58,7.51A17,17,0,0,0,19,33,63,63,0,0,1,29.42,25a63.57,63.57,0,0,1,10.47,8A17,17,0,0,0,29.41,42.88Zm1.53,2.61A14.7,14.7,0,0,1,40,35.37,28.15,28.15,0,0,1,30.94,45.49Zm10.72-13.9A65.84,65.84,0,0,0,31.6,23.66,79,79,0,0,1,43,18.31a29,29,0,0,1,.27,4A27.91,27.91,0,0,1,41.66,31.59Z"/><path class="cls-2" d="M45,16.54v0a.74.74,0,0,0,0-.14A.49.49,0,0,1,45,16.54Z"/></svg>